<svg width="300" height="300" viewBox="0 0 300 300" fill="none" xmlns="http://www.w3.org/2000/svg">
<path d="M283.333 150C283.333 223.639 223.634 283.334 149.999 283.334C76.3651 283.334 16.666 223.639 16.666 150C16.666 76.3661 76.3605 16.667 149.999 16.667C223.638 16.667 283.333 76.3661 283.333 150Z" fill="#C8102E"/>
<path d="M276.68 150C276.68 219.968 219.963 276.681 150 276.681C80.032 276.686 23.3145 219.968 23.3145 150C23.3145 80.0374 80.032 23.3198 150 23.3198C219.963 23.3198 276.68 80.0374 276.68 150Z" fill="#12173F"/>
<path d="M242.495 150C242.495 201.084 201.083 242.496 149.999 242.496C98.916 242.496 57.5039 201.088 57.5039 150C57.5039 98.9123 98.916 57.5049 149.999 57.5049C201.083 57.5049 242.495 98.9169 242.495 150Z" fill="#4891CE"/>
<path d="M238.8 150C238.8 199.042 199.045 238.801 149.999 238.801C100.958 238.801 61.1982 199.042 61.1982 150C61.1982 100.958 100.953 61.1992 149.999 61.1992C199.045 61.1992 238.8 100.958 238.8 150Z" fill="white"/>
<path d="M62.1104 215.977C66.2076 212.463 70.9067 213.496 74.0502 217.153C75.3326 218.648 76.1983 220.403 76.3604 221.894L74.1613 223.783L74.0224 223.616C74.1798 221.866 73.5965 220.306 72.5502 219.088C70.8881 217.148 68.615 216.699 66.7354 218.315L63.865 220.773C61.8974 222.463 61.8835 224.732 63.6104 226.741C64.6983 228.01 66.1289 228.764 68.1057 228.986L68.2307 229.135L66.0131 231.037C64.4252 230.639 62.8094 229.519 61.49 227.977C58.2909 224.26 58.0317 219.477 62.1104 215.977Z" fill="white"/>
<path d="M85.5872 232.079C85.8511 231.449 85.9668 230.741 85.9946 229.621L86.1196 229.445L90.7168 232.699L82.9992 243.598L89.0548 247.889L87.0548 249.505L77.9668 243.065L84.9529 233.204C85.2492 232.778 85.4436 232.426 85.5872 232.079Z" fill="white"/>
<path d="M106.99 244.977C107.115 244.301 107.082 243.584 106.869 242.491L106.953 242.292L112.133 244.505L105.916 259.061L101.855 257.324L106.601 246.218C106.805 245.727 106.925 245.343 106.99 244.977Z" fill="white"/>
<path d="M125.004 251.403C124.971 250.718 124.777 250.028 124.328 249.009L124.369 248.796L133.3 250.412C137.231 251.125 139.203 253.546 138.578 257.033C137.953 260.519 135.254 262.139 131.328 261.412L127.939 260.782L127.115 265.37L122.768 264.593L124.902 252.699C124.994 252.181 125.022 251.778 125.004 251.403ZM131.082 258.926C132.545 259.199 133.522 258.676 133.795 257.158L134.138 255.236C134.411 253.722 133.67 252.912 132.207 252.648L129.485 252.162L128.365 258.417L131.082 258.926Z" fill="white"/>
<path d="M152.365 254.384C152.157 253.732 151.791 253.116 151.092 252.246L151.073 252.033L160.12 251.278C164.101 250.949 166.633 252.778 166.93 256.31C167.231 259.838 165.045 262.097 161.059 262.412L157.624 262.681L158.018 267.329L153.62 267.699L152.601 255.658C152.555 255.134 152.481 254.741 152.365 254.384ZM160.184 260.074C161.666 259.959 162.476 259.199 162.346 257.667L162.18 255.722C162.05 254.19 161.124 253.597 159.643 253.722L156.883 253.954L157.42 260.287L160.184 260.074Z" fill="white"/>
<path d="M179.574 250.13C179.208 249.551 178.694 249.051 177.796 248.389L177.722 248.186L189.523 243.973L190.995 246.01L183.837 248.565L185.171 252.297L190.666 250.329L190.842 252.806L185.976 254.547L187.532 258.894L195.046 256.213L195.189 258.76L184.199 262.686L180.134 251.311C179.949 250.806 179.777 250.445 179.574 250.13Z" fill="white"/>
<path d="M203.471 239.727C202.967 239.264 202.342 238.908 201.3 238.505L201.18 238.329L209.055 232.88C212.184 230.718 215.073 230.959 216.795 233.445C218.17 235.426 217.953 237.621 216.226 239.528L223.411 242.204L218.99 245.264L212.416 242.584L211.444 243.26L214.828 248.148L211.198 250.662L204.319 240.727C204.013 240.283 203.754 239.977 203.471 239.727ZM212.86 239.477C213.851 238.792 214.161 237.871 213.411 236.792L212.596 235.616C211.851 234.537 210.883 234.496 209.888 235.181L207.161 237.07L210.133 241.366L212.86 239.477Z" fill="white"/>
<path d="M234.138 230.732L231.902 228.82L232.032 228.662C234.147 228.426 236.013 227.209 237.342 225.648C238.657 224.111 239.073 222.695 238.055 221.82C237.397 221.26 236.624 221.25 235.559 221.94L232.485 223.917C230.143 225.417 228.147 225.639 226.49 224.218C224.3 222.334 224.374 219.005 227.157 215.746C228.462 214.218 230.087 213.01 231.61 212.542L233.772 214.389L233.633 214.551C231.902 214.672 230.161 215.848 228.999 217.204C227.846 218.547 227.444 219.885 228.286 220.588C228.874 221.079 229.689 220.94 230.629 220.338L233.735 218.348C236.207 216.764 238.351 216.5 240.184 218.098C242.717 220.306 242.078 223.824 239.332 227.028C237.805 228.811 235.791 230.306 234.138 230.732Z" fill="white"/>
<path d="M41.2867 111.759C40.6108 111.648 39.8932 111.694 38.8006 111.926L38.6016 111.847L40.7127 106.625L53.0923 111.63L55.8747 104.75L57.9117 106.329L53.7358 116.648L42.5367 112.12C42.0414 111.926 41.6571 111.815 41.2867 111.759Z" fill="white"/>
<path d="M55.8419 93.1487C51.7817 90.232 51.1104 85.5237 54.1196 81.3246C57.1335 77.1255 61.8141 76.2552 65.8743 79.1718C69.9344 82.0885 70.6057 86.7968 67.5919 90.9959C64.578 95.1904 59.902 96.0607 55.8419 93.1487ZM65.6243 89.5793C66.9993 87.6626 66.7215 85.6718 64.7261 84.2413L61.4344 81.8802C59.4437 80.4496 57.4622 80.82 56.0872 82.7367C54.7122 84.6533 54.9946 86.6441 56.9854 88.0746L60.277 90.4357C62.277 91.8663 64.2493 91.4959 65.6243 89.5793Z" fill="white"/>
<path d="M78.4158 75.7967L76.5176 73.5513L76.675 73.417C78.7954 73.5281 80.8371 72.6161 82.3972 71.2967C83.9435 69.9865 84.5824 68.6578 83.7121 67.63C83.1519 66.9726 82.3926 66.8383 81.2259 67.3476L77.8741 68.8013C75.3232 69.9031 73.3185 69.8105 71.9065 68.1393C70.05 65.9309 70.6519 62.6531 73.925 59.8846C75.4621 58.5837 77.2583 57.6578 78.8371 57.4355L80.675 59.6068L80.5083 59.7457C78.7769 59.5883 76.8695 60.468 75.5084 61.6207C74.1611 62.7643 73.5454 64.0189 74.263 64.8476C74.7676 65.4263 75.5917 65.417 76.6148 64.9772L79.9991 63.505C82.6935 62.3383 84.8509 62.417 86.4065 64.292C88.55 66.8754 87.3556 70.2457 84.1333 72.9726C82.3463 74.4865 80.1195 75.6393 78.4158 75.7967Z" fill="white"/>
<path d="M115.078 37.8845L115.018 37.6762L121.074 36.0142L131.717 49.5049L127.106 50.7688L124.963 48.0419L117.476 50.0975L117.023 53.5373L114.314 54.2827L116 42.0327C116.333 39.6808 116.25 39.1484 115.078 37.8845ZM123.356 46.0049L118.787 40.1808L117.824 47.5234L123.356 46.0049Z" fill="white"/>
<path d="M142.305 34.9588C142.157 34.2922 141.847 33.644 141.227 32.7135V32.5005L146.958 32.5236L154.884 42.306L154.926 32.5607L157.782 32.5746L157.708 48.4079L154.102 48.394L145.277 37.482L145.227 48.3477L142.375 48.3338L142.426 36.2505C142.43 35.7227 142.393 35.3246 142.305 34.9588Z" fill="white"/>
<path d="M170.472 42.0373C171.745 37.2271 175.782 34.8105 181.328 36.2734C182.981 36.7132 184.791 37.5049 186 38.7919L185.259 41.5836L185.051 41.528C184.24 40.0095 182.588 39.0836 181.018 38.6669C178.291 37.9447 176.259 38.8892 175.592 41.4216L174.662 44.9401C173.958 47.5929 175.18 49.3336 177.666 49.991C178.426 50.1901 179.134 50.2549 179.745 50.1855L180.949 45.6253L178.189 44.8938L179.439 42.7734L185.875 44.4771L183.865 52.0651C181.689 52.8845 179.342 52.9077 176.958 52.278C171.477 50.8243 169.208 46.8058 170.472 42.0373Z" fill="white"/>
<path d="M200.032 46.1579C200.222 45.5005 200.254 44.7829 200.152 43.6718L200.254 43.4819L211.254 49.4958L210.708 51.9495L204.041 48.3014L202.139 51.7782L207.259 54.5792L205.527 56.3569L200.99 53.8801L198.773 57.931L205.773 61.7597L203.967 63.556L193.727 57.9542L199.523 47.3569C199.782 46.8893 199.935 46.519 200.032 46.1579Z" fill="white"/>
<path d="M222.444 60.403C222.772 59.8011 222.967 59.1113 223.119 58.0048L223.258 57.8428L227.471 61.5835L218.61 71.5743L224.161 76.5002L221.99 77.8891L213.661 70.4955L221.68 61.4539C222.031 61.0604 222.268 60.7317 222.444 60.403Z" fill="white"/>
<path d="M240.272 78.3524C240.726 77.8432 241.073 77.2089 241.458 76.1626L241.633 76.0376L248.925 86.2274L247.37 88.2043L242.944 82.0191L239.721 84.3246L243.12 89.07L240.786 89.9172L237.777 85.7135L234.022 88.4033L238.666 94.8895L236.258 95.7228L229.467 86.2367L239.286 79.2043C239.726 78.9033 240.027 78.6394 240.272 78.3524Z" fill="white"/>
<path d="M242.611 104.625L245.328 103.505L245.402 103.695C244.648 105.681 244.888 107.898 245.666 109.792C246.439 111.667 247.509 112.681 248.749 112.167C249.546 111.838 249.907 111.153 249.782 109.889L249.425 106.25C249.157 103.486 249.865 101.607 251.884 100.773C254.555 99.6854 257.486 101.259 259.12 105.222C259.888 107.084 260.222 109.079 259.948 110.644L257.319 111.727L257.236 111.528C257.916 109.931 257.661 107.843 256.981 106.195C256.305 104.56 255.3 103.593 254.291 104.019C253.587 104.32 253.347 105.107 253.453 106.218L253.814 109.889C254.097 112.815 253.361 114.838 251.106 115.75C247.986 117 245.148 114.829 243.536 110.926C242.652 108.764 242.24 106.287 242.611 104.625Z" fill="white"/>
<path d="M90.3556 144.514L74.4899 146.977C76.0778 106.626 109.291 74.3987 150.032 74.3987L150.036 74.394V74.7922V99.32V106.658V110.658V114.792L150.411 114.917L151.522 110.658H171.295L171.462 111.153C171.263 112.598 171.37 116.913 178.615 120.014L178.805 120.588L150.041 119.876L121.277 120.588L121.471 120.014C128.717 116.913 128.819 112.598 128.624 111.153L128.786 110.658H148.559L147.541 106.741L133.147 107.232L133.272 106.862C137.55 104.44 137.698 101.028 137.596 99.7922L137.754 99.32H145.606L143.295 90.445C115.17 93.5977 92.9251 116.218 90.3556 144.514ZM201.092 118.598L198.777 125.598L199.272 126.644H220.189L221.064 124.024C210.8 95.982 184.407 75.7135 153.12 74.4635L155.601 90.3292C174.846 92.0977 191.457 102.968 201.092 118.598ZM199.277 173.362L198.782 174.413L201.096 181.413C191.471 197.024 174.888 207.889 155.67 209.676L153.194 225.547C184.453 224.264 210.814 204.005 221.069 175.987L220.194 173.366H199.277V173.362ZM180.157 124.626L179.957 124.028H150.036H120.115L119.916 124.626C119.87 126.422 119.032 132.116 111.207 139.889L110.995 140.538C115.374 138.649 119.309 137.065 123.018 135.7C127.573 134.019 131.8 132.663 135.948 131.547C138.212 130.936 140.467 130.394 142.657 129.945C144.967 129.463 147.272 129.061 149.518 128.751L150.004 128.681L150.49 128.746C152.402 128.996 154.374 129.325 156.356 129.718C158.231 130.088 160.17 130.538 162.12 131.042C165.694 131.968 169.37 133.107 173.36 134.519C178.745 136.426 184.018 138.598 189.161 140.792L188.86 139.889C181.041 132.112 180.207 126.417 180.157 124.626ZM166.814 106.866C162.532 104.445 162.383 101.033 162.485 99.7968L162.328 99.3246H154.481L152.545 106.746L166.934 107.237L166.814 106.866ZM163.407 185.403C163.462 185.487 163.527 185.57 163.601 185.653L163.606 185.658L163.61 185.663C163.768 185.862 164.018 186.056 164.291 186.255C164.573 186.431 164.911 186.635 165.314 186.801L165.319 186.806L165.323 186.811C166.022 187.126 166.911 187.413 168.036 187.686C170.101 188.186 172.444 188.454 174.481 188.667C175.05 188.723 175.624 188.769 176.203 188.815C177.129 186.139 178.282 183.482 179.592 180.843C177.17 181.931 174.578 182.871 171.851 183.639C168.425 184.612 165.434 185.13 163.407 185.403ZM132.036 187.686C133.161 187.413 134.05 187.126 134.749 186.811L134.763 186.806C135.166 186.639 135.504 186.436 135.786 186.26C136.059 186.061 136.314 185.866 136.471 185.667L136.476 185.663L136.481 185.658C136.555 185.575 136.62 185.491 136.675 185.408C134.647 185.135 131.657 184.616 128.231 183.649C125.504 182.88 122.911 181.94 120.49 180.852C121.8 183.491 122.953 186.149 123.879 188.825C124.457 188.778 125.032 188.727 125.601 188.672C127.629 188.454 129.971 188.186 132.036 187.686ZM225.564 149.996V150.056V153.019L209.721 155.519L193.138 158.135C189.587 163.894 185.782 169.63 182.495 175.413C182.096 175.658 181.703 175.889 181.3 176.121C176.045 179.102 170.133 180.908 163.726 181.477C164.305 180.102 165.17 178.718 166.027 177.417C166.504 176.695 167.045 175.936 167.717 175.024C168.272 174.264 168.86 173.477 169.518 172.635C171.175 170.496 172.925 168.32 174.62 166.218C175.448 165.186 176.309 164.116 177.147 163.061L179.05 160.63C179.133 160.528 179.212 160.422 179.291 160.32C179.846 159.593 180.388 158.871 180.902 158.163C181.481 157.366 182.096 156.51 182.675 155.635C182.856 155.366 183.027 155.088 183.198 154.815C183.295 154.658 183.402 154.491 183.504 154.329L183.508 154.325C183.508 154.32 183.513 154.32 183.513 154.315L180.305 153.408C180.291 153.426 180.282 153.445 180.272 153.459C180.115 153.713 179.953 153.973 179.782 154.227C179.3 154.954 178.758 155.723 178.078 156.644C177.129 157.885 175.879 159.487 174.495 161.075C174.42 161.158 174.346 161.246 174.272 161.329L174.268 161.334C172.573 163.297 170.74 165.246 168.971 167.135C167.953 168.218 166.902 169.338 165.879 170.459C164.61 171.848 163.133 173.505 161.782 175.264C161.12 176.112 160.504 176.996 159.944 177.894C159.471 178.658 158.874 179.681 158.425 180.834C158.106 181.653 157.684 182.917 157.735 184.366C157.749 185.769 158.337 187.237 159.309 188.297C159.832 188.917 160.476 189.38 161.032 189.751L161.036 189.755L161.041 189.76C161.707 190.167 162.351 190.501 162.953 190.732C164.11 191.195 165.332 191.542 166.8 191.82C168.087 192.07 169.36 192.186 170.555 192.283C171.846 192.394 173.129 192.408 174.24 192.413C174.291 192.413 174.342 192.413 174.397 192.413C174.638 192.413 174.879 192.408 175.12 192.408C174.93 193.135 174.758 193.862 174.61 194.588V194.593C174.596 194.598 174.587 194.598 174.578 194.602L163.504 198.579L156.629 201.139L151.851 151.811L151.416 147.325L150.541 138.278L150.036 138.454V147.325V149.913V151.093V205.139V225.204V225.602C108.3 225.602 74.4621 191.783 74.4297 150.051H74.4436L74.4389 149.991H91.101H118.971H123.351L123.508 149.519L116.272 147.528L109.457 145.653L109.703 144.913C122.138 139.403 135.712 134.093 150.041 132.112C164.096 133.95 177.62 139.57 190.448 145.116L190.624 145.649L183.795 147.538L176.573 149.528L176.731 150.001H181.106H208.976H225.564V149.996ZM144.508 209.681L143.143 201.028L136.582 198.579L125.527 194.607C125.508 194.602 125.495 194.598 125.476 194.593L125.471 194.588H125.476C125.323 193.862 125.152 193.135 124.962 192.408C125.207 192.413 125.448 192.413 125.684 192.413C125.735 192.413 125.791 192.413 125.842 192.413C126.948 192.408 128.235 192.389 129.518 192.283C130.712 192.186 131.985 192.07 133.272 191.82C134.745 191.542 135.971 191.2 137.12 190.732C137.721 190.496 138.365 190.167 139.036 189.76L139.041 189.755L139.045 189.751C139.601 189.38 140.24 188.913 140.768 188.297C141.74 187.237 142.332 185.769 142.346 184.366C142.37 183.672 142.323 182.547 141.652 180.834C141.203 179.681 140.606 178.658 140.133 177.894C139.578 177.001 138.957 176.112 138.295 175.264C136.948 173.505 135.471 171.848 134.198 170.459C133.175 169.338 132.124 168.213 131.106 167.13C129.337 165.246 127.499 163.292 125.809 161.334L125.805 161.329C125.735 161.251 125.666 161.167 125.596 161.088C124.207 159.496 122.953 157.885 121.999 156.644C121.323 155.723 120.782 154.954 120.295 154.227C120.124 153.973 119.962 153.713 119.809 153.459C119.795 153.445 119.786 153.426 119.777 153.408L116.569 154.315C116.569 154.32 116.573 154.32 116.573 154.325L116.578 154.329C116.68 154.491 116.782 154.658 116.879 154.815C117.045 155.088 117.221 155.366 117.402 155.635C117.981 156.514 118.596 157.366 119.18 158.163C119.698 158.876 120.24 159.602 120.8 160.334C120.874 160.431 120.953 160.533 121.027 160.63L122.934 163.061C123.772 164.112 124.633 165.181 125.462 166.213C127.152 168.315 128.907 170.491 130.559 172.63C131.217 173.477 131.805 174.26 132.36 175.019C133.036 175.936 133.573 176.695 134.05 177.413C134.907 178.713 135.772 180.098 136.351 181.473C129.948 180.903 124.041 179.102 118.791 176.121C118.383 175.894 117.981 175.653 117.578 175.408C114.295 169.626 110.49 163.899 106.944 158.144L90.3556 155.528C92.9852 184.218 115.823 207.056 144.508 209.681Z" fill="#12173F"/>
</svg>
