<svg width="300" height="300" viewBox="0 0 300 300" fill="none" xmlns="http://www.w3.org/2000/svg">
<path d="M275.115 118.708C260.402 59.7593 207.638 20.3843 149.758 20.3843C139.448 20.3843 128.971 21.6343 118.527 24.2454C49.3834 41.4954 7.44822 111.81 24.7769 181.296C39.5084 240.218 92.2121 279.616 150.12 279.616C160.457 279.616 170.962 278.361 181.448 275.736C250.527 258.431 292.545 188.134 275.115 118.708Z" fill="black"/>
<path d="M278.721 117.801C275.022 102.977 268.911 89.0559 260.564 76.4263C252.495 64.2225 242.513 53.4772 230.902 44.5003C207.68 26.5513 178.865 16.667 149.763 16.667C138.985 16.667 128.171 18.005 117.629 20.6392C83.2215 29.2225 54.2446 50.7596 36.0317 81.2781C17.828 111.787 12.5455 147.625 21.1705 182.195C24.8743 197.019 30.9854 210.94 39.3326 223.565C47.402 235.773 57.3743 246.514 68.9854 255.491C92.1937 273.445 121.009 283.334 150.12 283.334C160.925 283.334 171.768 281.991 182.351 279.343C216.74 270.732 245.708 249.186 263.916 218.676C282.134 188.153 287.388 152.329 278.721 117.801ZM150.12 279.616C92.2122 279.616 39.5039 240.218 24.777 181.297C7.44833 111.811 49.3835 41.4957 118.522 24.2457C128.971 21.6346 139.448 20.3846 149.754 20.3846C207.634 20.3846 260.397 59.7596 275.11 118.709C292.541 188.139 250.522 258.436 181.439 275.736C170.962 278.361 160.458 279.616 150.12 279.616Z" fill="white"/>
<path d="M140.874 138.83C140.902 138.83 140.93 138.83 140.962 138.83L145.388 138.82C149.851 138.672 150.832 138.487 152.888 137.908C160.235 135.709 160.309 129.417 160.416 125.705C160.416 125.228 160.416 110.251 160.416 110.251C160.416 101.112 156.569 99.8018 147.638 99.8018H140.786C140.161 99.8712 139.948 100.218 139.948 100.82C139.948 100.82 139.995 137.552 139.995 137.904C139.995 138.464 140.184 138.83 140.874 138.83Z" fill="white"/>
<path d="M151.074 152.153C147.731 151.797 144.384 151.825 141.032 151.825C140.305 151.825 140.203 152.315 140.203 152.672C140.203 152.996 140.305 191.69 140.305 198.714C140.305 199.528 140.638 200.047 141.499 200.047C142.236 200.047 151.763 200.019 151.763 200.019C157.31 199.834 159.481 199.093 161.259 197.815C164.231 195.51 164.712 191.862 164.712 184.079L164.666 167.01C164.666 164.621 164.546 162.052 163.782 159.737C162.921 157.487 161.587 155.778 159.592 154.589C157.083 152.982 153.981 152.464 151.074 152.153Z" fill="white"/>
<path d="M153.684 224.398C178.235 216.533 191.86 205.625 205.907 193.218C211.652 188.139 216.615 184.348 220.842 181.815C221.712 176.727 222.082 171.584 221.939 166.408C211.934 171.236 199.096 175.348 184.754 178.361L184.744 172.375C200.522 168.977 212.874 164.473 221.513 160.019C221.18 156.908 220.675 153.787 219.976 150.653C219.504 148.528 218.99 146.449 218.444 144.394C215.286 145.644 211.758 146.542 207.869 147.074C206.045 147.324 204.18 147.445 202.286 147.445C194.286 147.445 185.74 145.311 177.087 141.986C178.397 139.811 178.717 138.838 179.356 136.556C189.161 140.315 198.67 142.389 207.064 141.232C210.712 140.732 213.957 139.871 216.814 138.681C212.226 123.727 205.633 110.746 197.138 99.9957C188.629 89.2272 178.189 80.6392 166.115 74.4679C158.119 70.38 150.471 67.9077 144.096 66.4077C133.532 63.9216 122.411 65.0744 112.582 69.6716C99.4111 75.8337 87.9945 85.1438 79.3047 96.6253C87.9667 95.0188 102.638 94.6763 119.869 104.01L119.883 110.76C119.018 110.269 118.161 109.787 117.319 109.329C95.3648 97.3244 77.9852 102.672 74.2259 104.088C67.1611 115.709 62.6935 129.074 61.6334 143.371C63.7861 146.186 70.6334 154.348 82.8556 161.908C91.3834 167.186 103.689 172.829 119.999 175.635L120.008 181.616C102.157 178.695 88.7167 172.51 79.4621 166.741C71.1704 161.57 65.2398 156.195 61.4111 152.158C62.0408 178.186 73.9482 201.463 92.4204 217.287C100.05 223.824 109.619 227.699 119.652 228.264C128.893 228.797 141.337 228.352 153.684 224.398ZM126.555 87.8568C127.133 87.3105 127.832 87.0188 128.564 87.0188L153.439 86.9587C153.485 86.9587 153.532 86.9587 153.578 86.9587C160.49 86.9587 165.939 89.0281 169.559 93.0235C173.661 97.7087 174.221 103.491 174.388 108.565L174.444 126.903C174.476 128.468 174.522 132.482 173.462 135.709C172.277 139.334 170.152 142.213 167.032 144.306C169.032 145.111 170.712 146.125 172.106 147.297C178.837 152.871 178.837 160.755 178.837 167.204L178.874 187.801C178.698 195.111 178.069 201.611 171.985 207.13C165.119 212.986 156.879 213.01 154.194 213.01L128.893 213.079C128.314 213.079 127.772 212.917 127.319 212.635C126.467 212.139 125.957 211.199 125.957 210.232L125.744 89.829C125.74 89.0883 126.004 88.3938 126.555 87.8568Z" fill="white"/>
<path d="M227.679 163.371C227.994 168.811 227.781 173.954 227.193 178.755C227.193 178.755 229.828 177.824 232.017 177.737C233.411 177.681 233.925 177.801 234.119 177.894C236.499 170.732 237.99 163.167 238.457 155.329C236.999 156.787 235.207 158.343 233.008 159.945C231.392 161.112 229.605 162.255 227.679 163.371Z" fill="white"/>
<path d="M231.467 134.764C229.407 137.51 226.852 139.815 223.833 141.695C224.518 144.209 225.152 146.769 225.731 149.376C226.296 151.917 226.722 154.686 227.046 157.13C230.782 155.038 235.912 150.774 238.514 145.607C238.199 139.181 237.189 132.931 235.569 126.931C234.699 129.501 233.398 132.19 231.467 134.764Z" fill="white"/>
<path d="M155.48 230.01C144.971 233.375 134.541 234.385 125.804 234.385C124.786 234.385 123.791 234.371 122.818 234.343C131.388 237.112 140.522 238.616 150.004 238.616C163.939 238.616 177.129 235.38 188.869 229.625C198.448 224.931 206.379 217.487 211.536 208.149C212.564 206.287 213.596 204.25 214.592 202.056C216.36 198.149 217.804 194.19 218.939 190.204C216.388 192.07 213.374 194.487 209.809 197.635C195.791 210.014 181.087 221.811 155.48 230.01Z" fill="white"/>
<path d="M226.059 185.718C224.587 192.894 222.374 199.098 220.129 204.121C224.819 198.061 228.74 191.38 231.749 184.223C231.212 184.075 229.61 183.945 226.059 185.718Z" fill="white"/>
<path d="M201.763 96.3433C210.49 107.385 217.291 120.612 222.078 135.774C223.893 134.468 225.453 132.95 226.749 131.223C226.93 130.982 227.101 130.741 227.268 130.501C231.712 124.038 232.022 115.552 228.346 108.621C213.462 80.547 183.93 61.3804 150.004 61.3804C149.471 61.3804 148.939 61.3896 148.411 61.3989C154.518 63.0285 161.499 65.4869 168.8 69.2183C181.633 75.7831 192.721 84.9081 201.763 96.3433Z" fill="white"/>
<path d="M144.29 247.908L134.934 246.862C134.559 246.825 134.202 247.093 134.16 247.482L131.739 269.14C131.721 269.325 131.771 269.51 131.887 269.653C132.003 269.802 132.174 269.894 132.359 269.913L141.679 270.954C141.707 270.959 141.73 270.959 141.758 270.959C141.915 270.959 142.072 270.903 142.197 270.806C142.341 270.691 142.434 270.519 142.457 270.334L142.609 268.982C142.651 268.598 142.373 268.251 141.989 268.209L135.165 267.445L136.049 259.542L141.563 260.158C141.748 260.177 141.934 260.126 142.082 260.01C142.225 259.894 142.322 259.723 142.341 259.538L142.489 258.218C142.531 257.834 142.253 257.487 141.869 257.445L136.392 256.834L137.17 249.885L143.994 250.649C144.378 250.691 144.725 250.413 144.767 250.028L144.92 248.677C144.938 248.491 144.887 248.306 144.771 248.163C144.646 248.024 144.475 247.931 144.29 247.908Z" fill="white"/>
<path d="M169.058 246.196L157.942 247.728C157.558 247.784 157.29 248.135 157.345 248.52L157.535 249.895C157.558 250.08 157.66 250.247 157.808 250.358C157.956 250.469 158.141 250.52 158.327 250.492L162.22 249.955L164.924 269.506C164.975 269.858 165.271 270.112 165.618 270.112C165.651 270.112 165.683 270.112 165.716 270.108L167.544 269.853C167.729 269.83 167.896 269.728 168.007 269.58C168.118 269.432 168.169 269.242 168.141 269.061L165.438 249.515L169.442 248.964C169.628 248.941 169.794 248.839 169.905 248.691C170.016 248.543 170.067 248.353 170.04 248.172L169.85 246.797C169.799 246.413 169.447 246.145 169.058 246.196Z" fill="white"/>
<path d="M120.475 243.552L118.781 242.918C118.609 242.853 118.41 242.857 118.243 242.936C118.072 243.015 117.943 243.158 117.878 243.334L112.466 258.181L113.526 241.473C113.544 241.163 113.359 240.881 113.072 240.769L110.535 239.816C110.174 239.681 109.771 239.867 109.632 240.228L101.975 260.626C101.841 260.987 102.021 261.394 102.387 261.529L104.007 262.14C104.183 262.205 104.373 262.2 104.544 262.121C104.716 262.043 104.845 261.904 104.91 261.728L110.285 247.2C110.294 247.172 110.308 247.144 110.318 247.117L109.234 263.57C109.216 263.881 109.396 264.163 109.688 264.274L112.331 265.269C112.41 265.302 112.493 265.316 112.577 265.316C112.674 265.316 112.776 265.293 112.868 265.251C113.035 265.172 113.169 265.033 113.234 264.857L120.892 244.455C120.956 244.279 120.952 244.089 120.873 243.918C120.794 243.746 120.651 243.617 120.475 243.552Z" fill="white"/>
<path d="M192.258 250.205C187.457 248.644 186.813 248.089 186.133 246.39C185.785 245.519 185.702 244.862 185.883 244.376C186.072 243.857 186.6 243.436 187.498 243.075C189.748 242.172 190.23 243.371 190.739 244.644L191.461 246.45C191.531 246.621 191.665 246.76 191.836 246.834C192.008 246.908 192.202 246.913 192.373 246.839L194.049 246.168C194.221 246.098 194.359 245.964 194.434 245.793C194.508 245.621 194.508 245.427 194.438 245.255L193.855 243.797C193.443 242.769 192.929 241.487 191.818 240.672C190.494 239.7 188.739 239.677 186.457 240.589C184.336 241.441 183.082 242.677 182.725 244.269C182.429 245.612 182.827 246.876 183.211 247.83C184.471 250.973 186.739 251.691 190.503 252.876C194.109 253.987 195.035 254.455 195.841 256.464C196.225 257.413 196.318 258.14 196.133 258.672C195.929 259.251 195.355 259.728 194.373 260.121C193.748 260.371 192.563 260.737 191.679 260.339C190.929 259.996 190.674 259.441 190.049 257.89L189.406 256.288C189.262 255.927 188.85 255.755 188.494 255.899L186.781 256.584C186.609 256.654 186.471 256.788 186.397 256.959C186.322 257.131 186.322 257.325 186.392 257.496L187.531 260.334C188.346 262.371 189.957 263.436 192.063 263.436C193.035 263.436 194.109 263.209 195.258 262.746C200.943 260.468 199.295 256.353 198.753 255.005C197.526 251.941 195.767 251.362 192.258 250.205Z" fill="white"/>
<path d="M160.762 52.8895L162.549 53.1719C162.735 53.1997 162.92 53.1534 163.073 53.0469C163.225 52.9358 163.323 52.7737 163.355 52.5886L164.605 44.621L165.998 43.0654L168.753 53.7136C168.823 53.9821 169.049 54.1858 169.323 54.2321L171.258 54.5376C171.295 54.5423 171.332 54.5469 171.369 54.5469C171.563 54.5469 171.753 54.4636 171.887 54.3154C172.045 54.1395 172.105 53.8941 172.045 53.6673L168.517 40.1812L175.188 32.7691C175.36 32.5793 175.415 32.3062 175.327 32.0654C175.239 31.8247 175.031 31.6488 174.776 31.6071L172.73 31.2876C172.494 31.2552 172.248 31.3386 172.091 31.5238L165.494 39.1812L166.767 31.0654C166.795 30.8802 166.748 30.695 166.642 30.5423C166.531 30.3895 166.369 30.2923 166.184 30.2599L164.36 29.9728C163.975 29.9173 163.619 30.1765 163.559 30.5562L160.184 52.0793C160.119 52.4682 160.383 52.8247 160.762 52.8895Z" fill="white"/>
<path d="M193.462 62.4544C193.554 62.4961 193.647 62.5146 193.739 62.5146C194.008 62.5146 194.267 62.3572 194.383 62.0933L194.925 60.8479C194.999 60.6766 195.003 60.4822 194.934 60.3109C194.864 60.1396 194.73 60.0007 194.559 59.9266L188.846 57.4452L196.712 39.3433C196.864 38.9868 196.702 38.5748 196.346 38.422L194.656 37.6859C194.304 37.5285 193.887 37.6951 193.735 38.0516L185.045 58.0377C184.971 58.209 184.966 58.4035 185.036 58.5748C185.105 58.7461 185.239 58.885 185.411 58.959L193.462 62.4544Z" fill="white"/>
<path d="M209.458 72.6258C209.583 72.7184 209.731 72.7693 209.879 72.7693C209.911 72.7693 209.944 72.7693 209.976 72.7646C210.161 72.7369 210.328 72.6396 210.439 72.4915L216.152 64.9267L227.68 58.5656C227.888 58.4498 228.023 58.2369 228.041 58.0008C228.06 57.7646 227.953 57.5332 227.763 57.3896L226.143 56.1628C225.916 55.9915 225.611 55.973 225.365 56.1165L217.259 60.8665L219.643 51.7924C219.712 51.5193 219.615 51.2276 219.388 51.0563L217.823 49.8758C217.634 49.7322 217.388 49.6952 217.166 49.7739C216.944 49.8526 216.777 50.0378 216.722 50.2693L213.601 62.9869L207.884 70.5517C207.652 70.8619 207.712 71.3017 208.023 71.5332L209.458 72.6258Z" fill="white"/>
<path d="M223.328 85.0745C223.305 85.2596 223.356 85.4448 223.471 85.593L224.541 86.9541C224.656 87.1022 224.823 87.1948 225.008 87.218C225.193 87.2411 225.379 87.1856 225.527 87.0698L237.675 77.4587C237.698 77.4402 237.721 77.4217 237.744 77.4032L228.258 90.8846C228.082 91.1393 228.087 91.4772 228.281 91.7226L230.022 93.9448C230.161 94.1207 230.365 94.2133 230.573 94.2133C230.726 94.2133 230.874 94.1624 231.004 94.0652L248.156 80.63C248.462 80.3893 248.513 79.9495 248.277 79.6439L247.166 78.2226C247.05 78.0745 246.879 77.9819 246.693 77.9587C246.508 77.9402 246.318 77.9911 246.175 78.1069L233.828 87.968L243.425 74.255C243.601 74.0004 243.592 73.6624 243.402 73.4217L241.731 71.2874C241.615 71.1393 241.448 71.0467 241.263 71.0235C241.078 71.0004 240.893 71.0513 240.744 71.167L223.592 84.6022C223.448 84.718 223.351 84.8893 223.328 85.0745Z" fill="white"/>
<path d="M134.041 51.4959C134.972 52.6857 136.421 53.2875 138.356 53.2875C138.717 53.2875 139.097 53.2644 139.495 53.2227C142.624 52.8894 143.939 51.3292 144.356 50.6764C145.148 49.4542 145.111 48.0792 145.009 47.1533L143.745 35.2134C143.601 33.857 143.421 32.1718 142.185 30.9588C141.074 29.8709 139.3 29.3986 137.18 29.6162C134.935 29.8523 133.259 30.7088 132.319 32.0884C131.652 33.0653 131.439 34.2829 131.624 36.0329L132.921 48.2459C132.999 48.982 133.143 50.3477 134.041 51.4959ZM135.356 33.2042C135.787 32.7644 136.518 32.4634 137.356 32.3755C137.504 32.3616 137.648 32.3523 137.791 32.3523C138.435 32.3523 139.041 32.5005 139.439 32.7644C140.287 33.3431 140.499 34.7459 140.671 36.3801L141.791 46.9357C141.949 48.4218 141.824 49.3523 140.712 50.0097C140.703 50.0144 140.699 50.019 140.689 50.0236C140.324 50.2597 139.847 50.4079 139.277 50.4681C138.583 50.5422 137.935 50.4588 137.421 50.2366C136.606 49.857 136.231 49.3709 136.013 47.3292L134.749 35.3894C134.685 34.769 134.675 33.8709 135.356 33.2042Z" fill="white"/>
<path d="M86.36 74.8202C86.4989 75.0008 86.7072 75.098 86.9202 75.098C87.0683 75.098 87.2165 75.0517 87.3415 74.9545L88.8137 73.8434C88.9619 73.7322 89.0591 73.5656 89.0869 73.3804C89.11 73.1952 89.0637 73.01 88.9526 72.8619L82.9757 64.9452L84.3693 63.8943L94.2489 69.2276C94.4896 69.3572 94.7859 69.3341 95.0035 69.1721L96.5683 67.9915C96.7582 67.848 96.8646 67.6165 96.8461 67.3804C96.8276 67.1443 96.6887 66.9313 96.4804 66.8156L86.8693 61.6072C88.3183 59.7461 88.3554 57.885 86.9757 56.0563L84.9295 53.3434C82.2211 49.7554 78.6285 52.4637 77.448 53.3526L73.36 56.4359C73.2119 56.5471 73.1146 56.7137 73.0869 56.8989C73.0637 57.0841 73.11 57.2693 73.2211 57.4174L86.36 74.8202ZM79.235 55.3989C80.573 54.3897 81.36 54.1952 82.4943 55.6952L84.5221 58.3804C84.9665 58.973 84.9017 59.3896 84.8137 59.6535C84.6517 60.1258 84.2026 60.6443 83.4711 61.1952L81.3554 62.7924L77.0313 57.0609L79.235 55.3989Z" fill="white"/>
<path d="M69.1842 94.4359C69.212 94.4359 69.2444 94.4359 69.2721 94.4312C69.4573 94.4081 69.624 94.3109 69.7397 94.1627L72.962 89.9914C74.2768 88.2877 74.8046 86.7924 74.5777 85.4127C74.4018 84.3433 73.7814 83.4081 72.6703 82.5516L69.7397 80.2877C67.962 78.9127 66.5962 78.6349 65.0453 79.5285C65.087 78.584 64.7073 77.547 63.374 76.5146L60.9064 74.6072C57.5175 71.9868 55.249 74.922 54.2814 76.1812L51.3601 79.9636C51.124 80.2692 51.1796 80.7137 51.4851 80.9498L68.749 94.2923C68.874 94.3849 69.0268 94.4359 69.1842 94.4359ZM61.0221 82.8572L60.3462 83.7322L55.0592 79.6442L56.0592 78.3525C56.7814 77.422 57.2907 76.9405 57.7073 76.8016C57.962 76.7183 58.3184 76.7044 59.0499 77.2692L61.124 78.8757C61.999 79.5516 62.9851 80.3109 61.0221 82.8572ZM63.2721 84.4081C64.3184 83.0516 65.2583 82.3109 66.0638 82.2044C66.6981 82.1257 67.2397 82.459 67.7305 82.8386L70.1703 84.7275C71.5453 85.7877 72.2999 86.3757 70.6147 88.5609L69.1333 90.4775L62.5268 85.3711L63.2721 84.4081Z" fill="white"/>
<path d="M106.254 56.5379C106.527 57.2231 107.036 58.5008 108.207 59.3666C108.976 59.9314 109.879 60.2138 110.906 60.2138C111.814 60.2138 112.823 59.9962 113.92 59.5564C116.851 58.3897 117.689 56.5332 117.916 55.7925C118.351 54.4036 117.939 53.0888 117.596 52.2231L113.152 41.0657C112.647 39.7971 112.022 38.2184 110.504 37.3851C109.138 36.6351 107.3 36.6582 105.323 37.4453C103.226 38.2786 101.837 39.5564 101.309 41.1351C100.93 42.2601 101.05 43.487 101.703 45.1212L106.254 56.5379ZM104.536 41.3897C104.832 40.8527 105.453 40.3666 106.24 40.0518C106.712 39.8619 107.212 39.7694 107.656 39.7694C107.911 39.7694 108.147 39.8018 108.351 39.8666C109.323 40.1953 109.906 41.487 110.513 43.0147L114.439 52.8805C114.99 54.2694 115.119 55.1999 114.226 56.1305C114.221 56.1351 114.212 56.1444 114.207 56.149C113.925 56.4684 113.494 56.7508 112.967 56.9592C112.318 57.2184 111.67 57.311 111.115 57.237C110.23 57.0934 109.735 56.7231 108.976 54.8157L104.536 43.6582C104.314 43.0842 104.059 42.2184 104.536 41.3897Z" fill="white"/>
</svg>
